<svg width="66" height="65" viewBox="0 0 66 65" fill="none" xmlns="http://www.w3.org/2000/svg">
<path d="M60.7393 37.6416V32.2461C60.7393 31.9922 60.644 31.7594 60.4536 31.5479C60.2632 31.3363 60.0199 31.2305 59.7236 31.2305H34.0156V26.9775H47.8535C48.1497 26.9775 48.4036 26.8717 48.6152 26.6602C48.8268 26.4486 48.9326 26.2158 48.9326 25.9619V20.376C48.9326 20.1221 48.8268 19.8893 48.6152 19.6777C48.4036 19.4661 48.1497 19.3604 47.8535 19.3604H47.5361V17.2656H47.8535C48.1497 17.2656 48.4036 17.1704 48.6152 16.98C48.8268 16.7896 48.9326 16.5462 48.9326 16.25V10.7275C48.9326 10.4313 48.8268 10.188 48.6152 9.99756C48.4036 9.80713 48.1497 9.71191 47.8535 9.71191H47.5361V7.61719H47.8535C48.1497 7.61719 48.4036 7.51139 48.6152 7.2998C48.8268 7.08821 48.9326 6.83431 48.9326 6.53809V1.01562C48.9326 0.761719 48.8268 0.528969 48.6152 0.317383C48.4036 0.105797 48.1497 0 47.8535 0H18.1465C17.8503 0 17.5964 0.105797 17.3848 0.317383C17.1732 0.528969 17.0674 0.761719 17.0674 1.01562V6.53809C17.0674 6.83431 17.1732 7.08821 17.3848 7.2998C17.5964 7.51139 17.8503 7.61719 18.1465 7.61719H18.4639V9.71191H18.1465C17.8503 9.71191 17.5964 9.80713 17.3848 9.99756C17.1732 10.188 17.0674 10.4313 17.0674 10.7275V16.25C17.0674 16.5462 17.1732 16.7896 17.3848 16.98C17.5964 17.1704 17.8503 17.2656 18.1465 17.2656H18.4639V19.3604H18.1465C17.8503 19.3604 17.5964 19.4661 17.3848 19.6777C17.1732 19.8893 17.0674 20.1221 17.0674 20.376V25.9619C17.0674 26.2158 17.1732 26.4486 17.3848 26.6602C17.5964 26.8717 17.8503 26.9775 18.1465 26.9775H31.9844V31.2305H6.27637C5.98014 31.2305 5.73682 31.3363 5.54639 31.5479C5.35596 31.7594 5.26074 31.9922 5.26074 32.2461V37.6416C3.90658 37.8955 2.77458 38.562 1.86475 39.6411C0.954915 40.7202 0.5 41.958 0.5 43.3545C0.5 44.9626 1.07129 46.3273 2.21387 47.4487C3.35645 48.5702 4.71061 49.1309 6.27637 49.1309C7.88444 49.1309 9.24919 48.5702 10.3706 47.4487C11.492 46.3273 12.0527 44.9626 12.0527 43.3545C12.0527 41.958 11.5978 40.7202 10.688 39.6411C9.77816 38.562 8.66732 37.8955 7.35547 37.6416V33.3252H23.0342V37.6416C21.7223 37.8955 20.6115 38.562 19.7017 39.6411C18.7918 40.7202 18.3369 41.958 18.3369 43.3545C18.3369 44.9626 18.8976 46.3273 20.019 47.4487C21.1405 48.5702 22.5052 49.1309 24.1133 49.1309C25.679 49.1309 27.0332 48.5702 28.1758 47.4487C29.3184 46.3273 29.8896 44.9626 29.8896 43.3545C29.8896 41.958 29.4347 40.7202 28.5249 39.6411C27.6151 38.562 26.4831 37.8955 25.1289 37.6416V33.3252H40.8711V37.6416C39.5169 37.8955 38.3849 38.562 37.4751 39.6411C36.5653 40.7202 36.1104 41.958 36.1104 43.3545C36.1104 44.9626 36.6816 46.3273 37.8242 47.4487C38.9668 48.5702 40.321 49.1309 41.8867 49.1309C43.4948 49.1309 44.8595 48.5702 45.981 47.4487C47.1024 46.3273 47.6631 44.9626 47.6631 43.3545C47.6631 41.958 47.2082 40.7202 46.2983 39.6411C45.3885 38.562 44.2777 37.8955 42.9658 37.6416V33.3252H58.6445V37.6416C57.3327 37.8955 56.2218 38.562 55.312 39.6411C54.4022 40.7202 53.9473 41.958 53.9473 43.3545C53.9473 44.9626 54.508 46.3273 55.6294 47.4487C56.7508 48.5702 58.1156 49.1309 59.7236 49.1309C61.2894 49.1309 62.6436 48.5702 63.7861 47.4487C64.9287 46.3273 65.5 44.9626 65.5 43.3545C65.5 41.958 65.0451 40.7202 64.1353 39.6411C63.2254 38.562 62.0934 37.8955 60.7393 37.6416ZM10.0215 43.3545C10.0215 44.3701 9.6512 45.2482 8.91064 45.9888C8.17008 46.7293 7.29199 47.0996 6.27637 47.0996C5.26074 47.0996 4.39323 46.7293 3.67383 45.9888C2.95443 45.2482 2.59473 44.3701 2.59473 43.3545C2.59473 42.3389 2.95443 41.4714 3.67383 40.752C4.39323 40.0326 5.26074 39.6729 6.27637 39.6729C7.29199 39.6729 8.17008 40.0326 8.91064 40.752C9.6512 41.4714 10.0215 42.3389 10.0215 43.3545ZM27.7949 43.3545C27.7949 44.3701 27.4352 45.2482 26.7158 45.9888C25.9964 46.7293 25.1289 47.0996 24.1133 47.0996C23.0977 47.0996 22.2196 46.7293 21.479 45.9888C20.7384 45.2482 20.3682 44.3701 20.3682 43.3545C20.3682 42.3389 20.7384 41.4714 21.479 40.752C22.2196 40.0326 23.0977 39.6729 24.1133 39.6729C25.1289 39.6729 25.9964 40.0326 26.7158 40.752C27.4352 41.4714 27.7949 42.3389 27.7949 43.3545ZM19.1621 2.09473H46.8379V5.52246H19.1621V2.09473ZM45.4414 7.61719V9.71191H20.5586V7.61719H45.4414ZM19.1621 11.7432H46.8379V15.2344H42.3311C42.0348 15.2344 41.7915 15.3296 41.6011 15.52C41.4106 15.7104 41.3154 15.9538 41.3154 16.25C41.3154 16.5462 41.4106 16.7896 41.6011 16.98C41.7915 17.1704 42.0348 17.2656 42.3311 17.2656H45.4414V19.3604H20.5586V17.2656H38.2051C38.459 17.2656 38.6917 17.1704 38.9033 16.98C39.1149 16.7896 39.2207 16.5462 39.2207 16.25C39.2207 15.9538 39.1149 15.7104 38.9033 15.52C38.6917 15.3296 38.459 15.2344 38.2051 15.2344H19.1621V11.7432ZM19.1621 24.8828V21.4551H46.8379V24.8828H19.1621ZM45.6318 43.3545C45.6318 44.3701 45.2616 45.2482 44.521 45.9888C43.7804 46.7293 42.9023 47.0996 41.8867 47.0996C40.8711 47.0996 40.0036 46.7293 39.2842 45.9888C38.5648 45.2482 38.2051 44.3701 38.2051 43.3545C38.2051 42.3389 38.5648 41.4714 39.2842 40.752C40.0036 40.0326 40.8711 39.6729 41.8867 39.6729C42.9023 39.6729 43.7804 40.0326 44.521 40.752C45.2616 41.4714 45.6318 42.3389 45.6318 43.3545ZM59.7236 47.0996C58.708 47.0996 57.8299 46.7293 57.0894 45.9888C56.3488 45.2482 55.9785 44.3701 55.9785 43.3545C55.9785 42.3389 56.3488 41.4714 57.0894 40.752C57.8299 40.0326 58.708 39.6729 59.7236 39.6729C60.7393 39.6729 61.6068 40.0326 62.3262 40.752C63.0456 41.4714 63.4053 42.3389 63.4053 43.3545C63.4053 44.3701 63.0456 45.2482 62.3262 45.9888C61.6068 46.7293 60.7393 47.0996 59.7236 47.0996ZM19.9238 53.4473H16.2422V36.4355C16.2422 36.1393 16.1364 35.8854 15.9248 35.6738C15.7132 35.4622 15.4593 35.3564 15.1631 35.3564C14.9092 35.3564 14.6764 35.4622 14.4648 35.6738C14.2533 35.8854 14.1475 36.1393 14.1475 36.4355V53.4473H10.4658C10.1696 53.4473 9.91569 53.5425 9.7041 53.7329C9.49251 53.9233 9.38672 54.1667 9.38672 54.4629V63.9844C9.38672 64.2383 9.49251 64.471 9.7041 64.6826C9.91569 64.8942 10.1696 65 10.4658 65H19.9238C20.2201 65 20.474 64.8942 20.6855 64.6826C20.8971 64.471 21.0029 64.2383 21.0029 63.9844V54.4629C21.0029 54.1667 20.8971 53.9233 20.6855 53.7329C20.474 53.5425 20.2201 53.4473 19.9238 53.4473ZM18.9082 62.9053H11.4814V55.4785H18.9082V62.9053ZM37.7607 53.4473H34.0156V36.4355C34.0156 36.1393 33.9204 35.8854 33.73 35.6738C33.5396 35.4622 33.2962 35.3564 33 35.3564C32.7038 35.3564 32.4604 35.4622 32.27 35.6738C32.0796 35.8854 31.9844 36.1393 31.9844 36.4355V53.4473H28.2393C27.943 53.4473 27.6997 53.5425 27.5093 53.7329C27.3188 53.9233 27.2236 54.1667 27.2236 54.4629V63.9844C27.2236 64.2383 27.3188 64.471 27.5093 64.6826C27.6997 64.8942 27.943 65 28.2393 65H37.7607C38.057 65 38.3003 64.8942 38.4907 64.6826C38.6812 64.471 38.7764 64.2383 38.7764 63.9844V54.4629C38.7764 54.1667 38.6812 53.9233 38.4907 53.7329C38.3003 53.5425 38.057 53.4473 37.7607 53.4473ZM36.7451 62.9053H29.2549V55.4785H36.7451V62.9053ZM55.5342 53.4473H51.8525V36.4355C51.8525 36.1393 51.7467 35.8854 51.5352 35.6738C51.3236 35.4622 51.0908 35.3564 50.8369 35.3564C50.5407 35.3564 50.2868 35.4622 50.0752 35.6738C49.8636 35.8854 49.7578 36.1393 49.7578 36.4355V53.4473H46.0762C45.7799 53.4473 45.526 53.5425 45.3145 53.7329C45.1029 53.9233 44.9971 54.1667 44.9971 54.4629V63.9844C44.9971 64.2383 45.1029 64.471 45.3145 64.6826C45.526 64.8942 45.7799 65 46.0762 65H55.5342C55.8304 65 56.0843 64.8942 56.2959 64.6826C56.5075 64.471 56.6133 64.2383 56.6133 63.9844V54.4629C56.6133 54.1667 56.5075 53.9233 56.2959 53.7329C56.0843 53.5425 55.8304 53.4473 55.5342 53.4473ZM54.5186 62.9053H47.0918V55.4785H54.5186V62.9053Z" fill="#43BAFF"/>
</svg>
