<svg width="90" height="90" viewBox="0 0 90 90" fill="none" xmlns="http://www.w3.org/2000/svg">
<path d="M0.75 45C0.75 20.5614 20.5614 0.75 45 0.75C69.4386 0.75 89.25 20.5614 89.25 45C89.25 69.4386 69.4386 89.25 45 89.25C20.5614 89.25 0.75 69.4386 0.75 45Z" fill="#01273C"/>
<path d="M0.75 45C0.75 20.5614 20.5614 0.75 45 0.75C69.4386 0.75 89.25 20.5614 89.25 45C89.25 69.4386 69.4386 89.25 45 89.25C20.5614 89.25 0.75 69.4386 0.75 45Z" stroke="white" stroke-width="1.5"/>
<g clip-path="url(#clip0_1_450)">
<path d="M54.5977 30.8828C56.0872 30.8828 57.3652 30.3411 58.4316 29.2578C59.498 28.1745 60.0312 26.888 60.0312 25.3984C60.0312 23.875 59.498 22.5801 58.4316 21.5137C57.3652 20.4473 56.0872 19.9141 54.5977 19.9141C53.0742 19.9141 51.7793 20.4473 50.7129 21.5137C49.6465 22.5801 49.1133 23.875 49.1133 25.3984C49.1133 26.888 49.6465 28.1745 50.7129 29.2578C51.7793 30.3411 53.0742 30.8828 54.5977 30.8828ZM54.5977 21.7422C55.5794 21.7422 56.4258 22.0977 57.1367 22.8086C57.8477 23.5195 58.2031 24.3828 58.2031 25.3984C58.2031 26.3802 57.8477 27.235 57.1367 27.9629C56.4258 28.6908 55.5794 29.0547 54.5977 29.0547C54.5299 29.0547 54.4707 29.0462 54.4199 29.0293C54.3691 29.0124 54.3268 29.0039 54.293 29.0039C54.6654 28.6654 54.9616 28.2676 55.1816 27.8105C55.4017 27.3535 55.5117 26.8542 55.5117 26.3125H53.6836C53.6836 26.7526 53.5397 27.1419 53.252 27.4805C52.9642 27.819 52.6003 28.0221 52.1602 28.0898C51.7878 27.7513 51.4915 27.3535 51.2715 26.8965C51.0514 26.4395 50.9414 25.9401 50.9414 25.3984C50.9414 24.3828 51.2969 23.5195 52.0078 22.8086C52.7188 22.0977 53.582 21.7422 54.5977 21.7422ZM26.3125 41.8008C27.8021 41.8008 29.0885 41.2676 30.1719 40.2012C31.2552 39.1348 31.7969 37.8398 31.7969 36.3164C31.7969 34.8268 31.2552 33.5488 30.1719 32.4824C29.0885 31.416 27.8021 30.8828 26.3125 30.8828C24.7891 30.8828 23.4941 31.416 22.4277 32.4824C21.3613 33.5488 20.8281 34.8268 20.8281 36.3164C20.8281 37.8398 21.3613 39.1348 22.4277 40.2012C23.4941 41.2676 24.7891 41.8008 26.3125 41.8008ZM26.3125 32.6602C27.2943 32.6602 28.1491 33.0241 28.877 33.752C29.6048 34.4798 29.9688 35.3346 29.9688 36.3164C29.9688 36.8581 29.8503 37.3659 29.6133 37.8398C29.3763 38.3138 29.0885 38.7201 28.75 39.0586C28.3099 38.957 27.946 38.7454 27.6582 38.4238C27.3704 38.1022 27.2266 37.7044 27.2266 37.2305H25.3984C25.3984 37.7721 25.5085 38.2799 25.7285 38.7539C25.9486 39.2279 26.2448 39.6341 26.6172 39.9727C26.5495 39.9727 26.4902 39.9727 26.4395 39.9727C26.3887 39.9727 26.3464 39.9727 26.3125 39.9727C25.2969 39.9727 24.4336 39.6172 23.7227 38.9062C23.0117 38.1953 22.6562 37.332 22.6562 36.3164C22.6562 35.3346 23.0117 34.4798 23.7227 33.752C24.4336 33.0241 25.2969 32.6602 26.3125 32.6602ZM70.3906 20.8789L64.9062 19.0508C64.7708 19.0169 64.627 19.0085 64.4746 19.0254C64.3223 19.0423 64.1953 19.0846 64.0938 19.1523C63.9583 19.2539 63.8568 19.3724 63.7891 19.5078C63.7214 19.6432 63.6875 19.7786 63.6875 19.9141V31.7969H50.9414C50.8398 31.7969 50.7383 31.8138 50.6367 31.8477C50.5352 31.8815 50.4336 31.9323 50.332 32L44.8477 36.5195C44.8138 36.5872 44.7799 36.6465 44.7461 36.6973C44.7122 36.748 44.6784 36.7904 44.6445 36.8242L42.0547 42.0039L36.3164 44.4922L31.1367 42.7656C31.1029 42.7656 31.0605 42.7572 31.0098 42.7402C30.959 42.7233 30.9167 42.7148 30.8828 42.7148H23.5703C22.3177 42.7148 21.2428 43.1634 20.3457 44.0605C19.4486 44.9577 19 46.0326 19 47.2852V57.3398C19 57.5768 19.0931 57.7799 19.2793 57.9492C19.4655 58.1185 19.6771 58.2031 19.9141 58.2031H22.6562V69.1719H19V71H31.7969C32.0339 71 32.237 70.9069 32.4062 70.7207C32.5755 70.5345 32.6602 70.3229 32.6602 70.0859V65.5156H45.457C45.694 65.5156 45.9056 65.431 46.0918 65.2617C46.278 65.0924 46.3711 64.8724 46.3711 64.6016V60.0312H56.4258C56.6628 60.0312 56.8743 59.9466 57.0605 59.7773C57.2467 59.6081 57.3398 59.388 57.3398 59.1172V54.5977H70.0859V52.7695H68.2578V45.457C68.2578 44.2044 67.8092 43.1296 66.9121 42.2324C66.015 41.3353 64.9401 40.8867 63.6875 40.8867H60.0312V37.2305H64.6016C65.8542 37.2305 66.929 36.7904 67.8262 35.9102C68.7233 35.0299 69.1719 33.9466 69.1719 32.6602V27.2266C69.1719 26.9557 69.0872 26.7357 68.918 26.5664C68.7487 26.3971 68.5286 26.3125 68.2578 26.3125H65.5156V24.2305L70.3906 22.6055C70.5599 22.5378 70.7038 22.4277 70.8223 22.2754C70.9408 22.123 71 21.9453 71 21.7422C71 21.5391 70.9408 21.3613 70.8223 21.209C70.7038 21.0566 70.5599 20.9466 70.3906 20.8789ZM55.9688 33.5742L55.5117 34.793L55.0039 33.5742H55.9688ZM31.7969 63.6875C31.526 63.6875 31.306 63.7806 31.1367 63.9668C30.9674 64.153 30.8828 64.3646 30.8828 64.6016V69.1719H29.0547V58.2031H33.5742V63.6875H31.7969ZM35.4023 63.6875V57.3398C35.4023 57.069 35.3177 56.849 35.1484 56.6797C34.9792 56.5104 34.7591 56.4258 34.4883 56.4258H28.1406C27.8698 56.4258 27.6497 56.5104 27.4805 56.6797C27.3112 56.849 27.2266 57.069 27.2266 57.3398V69.1719H24.4844V48.1992H22.6562V56.4258H20.8281V47.2852C20.8281 46.5404 21.099 45.8971 21.6406 45.3555C22.1823 44.8138 22.8255 44.543 23.5703 44.543H26.3125V50.9414H28.1406V44.543H30.7305L36.0625 46.3203C36.1641 46.3542 36.2656 46.3711 36.3672 46.3711C36.4688 46.3711 36.5703 46.3542 36.6719 46.3203L42.3594 43.832L43.2227 45.1016L37.0781 48.1484L30.9844 47.2852C30.849 47.2852 30.722 47.3021 30.6035 47.3359C30.485 47.3698 30.375 47.4206 30.2734 47.4883C30.1719 47.5898 30.0957 47.6999 30.0449 47.8184C29.9941 47.9368 29.9688 48.0638 29.9688 48.1992V52.7695C29.9688 53.0065 30.0534 53.2181 30.2227 53.4043C30.3919 53.5905 30.612 53.6836 30.8828 53.6836H35.4023C36.181 53.6836 36.8327 53.946 37.3574 54.4707C37.8822 54.9954 38.1445 55.6471 38.1445 56.4258V63.6875H35.4023ZM45.457 58.2031C45.2201 58.2031 45.0085 58.2962 44.8223 58.4824C44.6361 58.6686 44.543 58.8802 44.543 59.1172V63.6875H39.9727V56.4258C39.9727 55.1393 39.5326 54.056 38.6523 53.1758C37.7721 52.2956 36.6888 51.8555 35.4023 51.8555H31.7969V49.2656L37.1289 50.0273C37.1966 50.0273 37.2812 50.0189 37.3828 50.002C37.4844 49.985 37.569 49.9596 37.6367 49.9258L44.9492 46.2695C45.0169 46.2357 45.0762 46.1934 45.127 46.1426C45.1777 46.0918 45.2201 46.0326 45.2539 45.9648C45.2878 45.9648 45.3047 45.9648 45.3047 45.9648L48.8594 40.6328L50.9414 39.0586V58.2031H45.457ZM61.8594 52.7695H57.3398V47.2852H61.8594V52.7695ZM67.3438 32.6602C67.3438 33.4388 67.0814 34.0905 66.5566 34.6152C66.0319 35.14 65.3802 35.4023 64.6016 35.4023H59.1172C58.8802 35.4023 58.6686 35.4954 58.4824 35.6816C58.2962 35.8678 58.2031 36.0794 58.2031 36.3164V41.8008C58.2031 42.0716 58.2962 42.2917 58.4824 42.4609C58.6686 42.6302 58.8802 42.7148 59.1172 42.7148H63.6875C64.4661 42.7148 65.1178 42.9857 65.6426 43.5273C66.1673 44.069 66.4297 44.7122 66.4297 45.457V52.7695H63.6875V46.3711C63.6875 46.1341 63.6029 45.9225 63.4336 45.7363C63.2643 45.5501 63.0443 45.457 62.7734 45.457H56.4258C56.1549 45.457 55.9349 45.5501 55.7656 45.7363C55.5964 45.9225 55.5117 46.1341 55.5117 46.3711V58.2031H52.7695V37.2305C52.7695 37.0612 52.7188 36.9089 52.6172 36.7734C52.5156 36.638 52.3971 36.5195 52.2617 36.418C52.0924 36.3503 51.9232 36.3249 51.7539 36.3418C51.5846 36.3587 51.4323 36.418 51.2969 36.5195L47.6406 39.2617C47.6068 39.2956 47.5729 39.3294 47.5391 39.3633C47.5052 39.3971 47.4714 39.431 47.4375 39.4648L44.543 43.832L43.7812 42.6641L46.168 37.8398L51.2461 33.5742H53.0234L54.6484 37.5859C54.7161 37.7552 54.8262 37.8906 54.9785 37.9922C55.1309 38.0938 55.3086 38.1445 55.5117 38.1445C55.681 38.1445 55.8418 38.0938 55.9941 37.9922C56.1465 37.8906 56.2565 37.7552 56.3242 37.5859L57.9492 33.5742H64.6016C64.8724 33.5742 65.0924 33.4896 65.2617 33.3203C65.431 33.151 65.5156 32.931 65.5156 32.6602V28.1406H67.3438V32.6602ZM65.5156 22.3008V21.1836L67.1914 21.7422L65.5156 22.3008ZM40.8867 23.5703H42.7148V25.3984H40.8867V23.5703ZM37.2305 23.5703H39.0586V25.3984H37.2305V23.5703ZM33.5742 23.5703H35.4023V25.3984H33.5742V23.5703Z" fill="#43BAFF"/>
</g>
<defs>
<clipPath id="clip0_1_450">
<rect width="52" height="52" fill="white" transform="matrix(1 0 0 -1 19 71)"/>
</clipPath>
</defs>
</svg>
