<svg width="18" height="22" viewBox="0 0 18 22" fill="none" xmlns="http://www.w3.org/2000/svg">
<path d="M9 4.38281C8.34783 4.38281 7.73913 4.50456 7.17391 4.74805C6.6087 4.99154 6.11594 5.32096 5.69565 5.73633C5.27536 6.15169 4.94203 6.63867 4.69565 7.19727C4.44928 7.75586 4.32609 8.35026 4.32609 8.98047C4.32609 9.61068 4.44928 10.2051 4.69565 10.7637C4.94203 11.3223 5.27536 11.8128 5.69565 12.2354C6.11594 12.6579 6.6087 12.9837 7.17391 13.2129C7.73913 13.4564 8.34783 13.5781 9 13.5781C9.63768 13.5781 10.2391 13.4635 10.8043 13.2344C11.3696 12.9909 11.8623 12.6579 12.2826 12.2354C12.7029 11.8128 13.0362 11.3223 13.2826 10.7637C13.529 10.2051 13.6522 9.61068 13.6522 8.98047C13.6522 8.35026 13.529 7.75586 13.2826 7.19727C13.0362 6.63867 12.7029 6.15169 12.2826 5.73633C11.8623 5.32096 11.3696 4.99154 10.8043 4.74805C10.2391 4.50456 9.63768 4.38281 9 4.38281ZM9 12.4824C8.01449 12.4824 7.17754 12.1387 6.48913 11.4512C5.80072 10.7637 5.45652 9.9401 5.45652 8.98047C5.45652 8.02083 5.80072 7.19727 6.48913 6.50977C7.17754 5.82227 8.01449 5.47852 9 5.47852C9.97101 5.47852 10.8007 5.82227 11.4891 6.50977C12.1775 7.19727 12.5217 8.02083 12.5217 8.98047C12.5217 9.9401 12.1775 10.7637 11.4891 11.4512C10.8007 12.1387 9.97101 12.4824 9 12.4824ZM9 0C8.94203 0 8.88768 0 8.83696 0C8.78623 0 8.73188 0 8.67391 0C7.55797 0.0429688 6.5 0.272135 5.5 0.6875C4.5 1.11719 3.61232 1.6901 2.83696 2.40625C2.06159 3.1224 1.42754 3.96029 0.934783 4.91992C0.442029 5.87956 0.144928 6.91081 0.0434783 8.01367C0 8.44336 -0.0108696 8.87305 0.0108696 9.30273C0.0326087 9.73242 0.0797101 10.1478 0.152174 10.5488C0.152174 10.5488 0.15942 10.5739 0.173913 10.624C0.188406 10.6742 0.202899 10.7493 0.217391 10.8496C0.289855 11.1504 0.376812 11.4476 0.478261 11.7412C0.57971 12.0348 0.695652 12.3177 0.826087 12.5898C1.05797 13.1341 1.36232 13.7428 1.73913 14.416C2.13043 15.1035 2.61957 15.834 3.20652 16.6074C3.79348 17.3809 4.49275 18.1973 5.30435 19.0566C6.11594 19.916 7.07246 20.7969 8.17391 21.6992C8.28986 21.7995 8.42029 21.8747 8.56522 21.9248C8.71014 21.9749 8.85507 22 9 22C9.15942 22 9.30797 21.9749 9.44565 21.9248C9.58333 21.8747 9.71014 21.7995 9.82609 21.6992C10.9275 20.7969 11.8841 19.916 12.6957 19.0566C13.5217 18.1973 14.2246 17.3809 14.8043 16.6074C15.3841 15.834 15.8696 15.1107 16.2609 14.4375C16.6377 13.7643 16.942 13.1556 17.1739 12.6113C17.3043 12.3249 17.4203 12.0348 17.5217 11.7412C17.6232 11.4476 17.7101 11.1504 17.7826 10.8496C17.7971 10.7923 17.808 10.7422 17.8152 10.6992C17.8225 10.6562 17.8333 10.6133 17.8478 10.5703C17.8913 10.2839 17.9275 10.001 17.9565 9.72168C17.9855 9.44238 18 9.1595 18 8.87305C18 7.6556 17.7609 6.50977 17.2826 5.43555C16.8043 4.34701 16.1594 3.40169 15.3478 2.59961C14.5362 1.79753 13.587 1.16016 12.5 0.6875C11.3986 0.229166 10.2319 0 9 0ZM16.7174 10.377C16.7174 10.377 16.7138 10.3984 16.7065 10.4414C16.6993 10.4844 16.6884 10.5345 16.6739 10.5918C16.6159 10.8639 16.5435 11.1289 16.4565 11.3867C16.3696 11.6445 16.2681 11.9023 16.1522 12.1602C15.9203 12.6758 15.6232 13.2559 15.2609 13.9004C14.8986 14.5449 14.4384 15.236 13.8804 15.9736C13.3225 16.7113 12.6522 17.4954 11.8696 18.3262C11.087 19.1426 10.1667 19.9805 9.1087 20.8398C9.0942 20.8542 9.07609 20.8649 9.05435 20.8721C9.03261 20.8792 9.01449 20.8828 9 20.8828C8.98551 20.8828 8.96739 20.8792 8.94565 20.8721C8.92391 20.8649 8.9058 20.8542 8.8913 20.8398C7.83333 19.9805 6.91304 19.1426 6.13043 18.3262C5.34783 17.4954 4.67391 16.7113 4.1087 15.9736C3.54348 15.236 3.07971 14.5449 2.71739 13.9004C2.35507 13.2415 2.06522 12.6543 1.84783 12.1387C1.73188 11.8952 1.63043 11.6445 1.54348 11.3867C1.45652 11.1289 1.37681 10.8639 1.30435 10.5918C1.28986 10.5345 1.27899 10.488 1.27174 10.4521C1.26449 10.4163 1.26087 10.3984 1.26087 10.3984C1.26087 10.3841 1.26087 10.377 1.26087 10.377C1.26087 10.377 1.26087 10.3698 1.26087 10.3555C1.18841 9.9974 1.14493 9.62858 1.13043 9.24902C1.11594 8.86947 1.12319 8.49349 1.15217 8.12109C1.25362 7.16146 1.51449 6.25911 1.93478 5.41406C2.36957 4.56901 2.92391 3.83496 3.59783 3.21191C4.27174 2.58887 5.05072 2.09115 5.93478 1.71875C6.80435 1.34635 7.73188 1.13867 8.71739 1.0957C9.83333 1.06706 10.8841 1.24609 11.8696 1.63281C12.8696 2.03385 13.7391 2.58887 14.4783 3.29785C15.2174 4.00684 15.7971 4.84115 16.2174 5.80078C16.6522 6.76042 16.8696 7.79167 16.8696 8.89453C16.8696 9.13802 16.8587 9.38151 16.837 9.625C16.8152 9.86849 16.7754 10.1191 16.7174 10.377Z" fill="#00C3FF"/>
</svg>
