<svg width="11" height="11" viewBox="0 0 11 11" fill="none" xmlns="http://www.w3.org/2000/svg">
<path d="M10.9141 0.923828V8.70117C10.9141 8.75846 10.9069 8.81576 10.8926 8.87305C10.8783 8.93034 10.8639 8.98763 10.8496 9.04492C10.821 9.10221 10.7923 9.15592 10.7637 9.20605C10.735 9.25618 10.6992 9.30273 10.6562 9.3457C10.6133 9.38867 10.5667 9.42806 10.5166 9.46387C10.4665 9.49967 10.4128 9.5319 10.3555 9.56055C10.2982 9.57487 10.2373 9.58919 10.1729 9.60352C10.1084 9.61784 10.0475 9.625 9.99023 9.625C9.93294 9.625 9.87565 9.61784 9.81836 9.60352C9.76107 9.58919 9.70378 9.57487 9.64648 9.56055C9.58919 9.5319 9.53548 9.49967 9.48535 9.46387C9.43522 9.42806 9.38867 9.38867 9.3457 9.3457C9.30273 9.30273 9.26335 9.25618 9.22754 9.20605C9.19173 9.15592 9.16667 9.10221 9.15234 9.04492C9.1237 8.98763 9.10221 8.93034 9.08789 8.87305C9.07357 8.81576 9.06641 8.75846 9.06641 8.70117L9.08789 3.13672L1.56836 10.6348C1.48242 10.7207 1.38216 10.7887 1.26758 10.8389C1.15299 10.889 1.03841 10.9141 0.923828 10.9141C0.794922 10.9141 0.676758 10.889 0.569336 10.8389C0.461914 10.7887 0.365234 10.7207 0.279297 10.6348C0.193359 10.5488 0.125326 10.4521 0.0751953 10.3447C0.0250651 10.2373 0 10.1191 0 9.99023C0 9.87565 0.0250651 9.76107 0.0751953 9.64648C0.125326 9.5319 0.193359 9.43164 0.279297 9.3457L7.77734 1.82617L2.21289 1.84766C2.09831 1.84766 1.98372 1.82259 1.86914 1.77246C1.75456 1.72233 1.6543 1.6543 1.56836 1.56836C1.48242 1.48242 1.41439 1.38216 1.36426 1.26758C1.31413 1.153 1.28906 1.03841 1.28906 0.923828C1.28906 0.794922 1.31413 0.676758 1.36426 0.569336C1.41439 0.461914 1.48242 0.365234 1.56836 0.279297C1.6543 0.193359 1.75456 0.125325 1.86914 0.0751953C1.98372 0.0250654 2.09831 0 2.21289 0H9.99023C10.0475 0 10.1084 0.00716114 10.1729 0.0214844C10.2373 0.0358076 10.2982 0.0501299 10.3555 0.0644531C10.4128 0.0930986 10.4665 0.125325 10.5166 0.161133C10.5667 0.19694 10.6133 0.236328 10.6562 0.279297C10.6992 0.322266 10.735 0.368815 10.7637 0.418945C10.7923 0.469075 10.821 0.515625 10.8496 0.558594C10.8639 0.615886 10.8783 0.676758 10.8926 0.741211C10.9069 0.805664 10.9141 0.866536 10.9141 0.923828Z" fill="#080501"/>
</svg>
