<svg width="18" height="22" viewBox="0 0 18 22" fill="none" xmlns="http://www.w3.org/2000/svg">
<path d="M14.2251 13.6247C14.0373 13.3957 13.8349 13.2203 13.6178 13.0986C13.4007 12.9769 13.1748 12.9161 12.9401 12.9161C12.7054 12.9161 12.4795 12.9769 12.2624 13.0986C12.0453 13.2203 11.837 13.3957 11.6375 13.6247L10.4405 15.085C10.3935 15.0564 10.3436 15.0278 10.2908 14.9991C10.238 14.9705 10.1881 14.9347 10.1412 14.8918C10.0825 14.8631 10.0209 14.8273 9.95637 14.7844C9.89182 14.7414 9.83021 14.6985 9.77153 14.6555C9.20823 14.226 8.66841 13.7214 8.15205 13.1415C7.63569 12.5617 7.13107 11.9067 6.63818 11.1766C6.40348 10.8043 6.20398 10.4607 6.03968 10.1458C5.87538 9.8308 5.73456 9.51583 5.61721 9.20087C5.76977 9.02907 5.91939 8.85369 6.06608 8.67473C6.21278 8.49577 6.35654 8.32039 6.49736 8.14859C6.5443 8.07701 6.59711 8.009 6.65579 7.94458C6.71446 7.88015 6.76727 7.81215 6.81422 7.74056C7.21322 7.2538 7.41272 6.7205 7.41272 6.14067C7.41272 5.56085 7.21322 5.02755 6.81422 4.54078L5.77563 3.27375C5.71696 3.20217 5.65828 3.12701 5.5996 3.04827C5.54093 2.96952 5.48225 2.89436 5.42357 2.82278C5.30622 2.67961 5.18886 2.53644 5.07151 2.39328C4.95416 2.25011 4.8368 2.10694 4.71945 1.96377C4.53168 1.73471 4.32925 1.56291 4.11214 1.44837C3.89504 1.33384 3.66913 1.27657 3.43442 1.27657C3.19972 1.27657 2.97381 1.33384 2.7567 1.44837C2.5396 1.56291 2.33716 1.73471 2.1494 1.96377C2.1494 1.96377 2.14353 1.96377 2.13179 1.96377L0.846769 3.5744C0.600326 3.86074 0.409626 4.18644 0.274669 4.55152C0.139712 4.91659 0.0546303 5.30672 0.0194241 5.72191C-0.0275175 6.39479 0.0106226 7.03189 0.133844 7.63319C0.257066 8.23449 0.383221 8.74273 0.512311 9.15792C0.817431 10.1744 1.20763 11.1658 1.68292 12.1322C2.1582 13.0986 2.73617 14.0829 3.41682 15.085C3.83929 15.7007 4.27937 16.2733 4.73705 16.803C5.19473 17.3471 5.67295 17.8589 6.1717 18.3385C6.67046 18.8181 7.18388 19.2584 7.71197 19.6592C8.2518 20.0744 8.80923 20.4466 9.38427 20.7759C9.81848 21.0336 10.3202 21.2877 10.8893 21.5383C11.4585 21.7888 12.0717 21.9427 12.7289 22C12.7641 22 12.8022 22 12.8433 22C12.8843 22 12.9284 22 12.9753 22C13.4095 22 13.8114 21.9034 14.1811 21.7101C14.5508 21.5168 14.8764 21.2269 15.1581 20.8403C15.1698 20.8403 15.1757 20.8403 15.1757 20.8403C15.1757 20.8403 15.1757 20.8332 15.1757 20.8189C15.2813 20.6757 15.3899 20.5361 15.5013 20.4001C15.6128 20.2641 15.7272 20.1245 15.8446 19.9813C15.9267 19.8954 16.0089 19.8024 16.091 19.7022C16.1732 19.602 16.2553 19.4946 16.3375 19.38C16.5253 19.151 16.669 18.9004 16.7688 18.6284C16.8685 18.3564 16.9184 18.0772 16.9184 17.7909C16.9184 17.5046 16.8685 17.2254 16.7688 16.9534C16.669 16.6813 16.5194 16.4236 16.3199 16.1803L14.2251 13.6247ZM15.5982 18.521C15.516 18.6213 15.4368 18.7143 15.3605 18.8002C15.2842 18.8861 15.205 18.9792 15.1229 19.0794C15.0055 19.2226 14.8823 19.3729 14.7532 19.5304C14.6241 19.6879 14.5009 19.8453 14.3835 20.0028C14.1958 20.2605 13.9845 20.4502 13.7498 20.5719C13.5151 20.6936 13.2511 20.7544 12.9577 20.7544C12.9342 20.7544 12.9078 20.7544 12.8785 20.7544C12.8491 20.7544 12.8169 20.7544 12.7817 20.7544C12.2184 20.6972 11.6815 20.5576 11.171 20.3357C10.6605 20.1138 10.2116 19.8883 9.82434 19.6592C9.28452 19.3443 8.76229 18.9935 8.25767 18.6069C7.75305 18.2204 7.26603 17.8052 6.79661 17.3614C6.3272 16.9176 5.87538 16.438 5.44117 15.9226C5.00697 15.4072 4.59623 14.8631 4.20896 14.2905C3.56351 13.3312 3.01782 12.4007 2.57187 11.4987C2.12593 10.5967 1.75626 9.67332 1.46288 8.72842C1.28685 8.15575 1.16656 7.63319 1.10201 7.16074C1.03747 6.68829 1.01693 6.24447 1.0404 5.82928C1.06387 5.55727 1.11668 5.30672 1.19883 5.07766C1.28098 4.84859 1.4042 4.641 1.5685 4.45488L2.85352 2.86573C2.9474 2.75119 3.04422 2.66887 3.14397 2.61876C3.24372 2.56866 3.34054 2.5436 3.43442 2.5436C3.55178 2.5436 3.66033 2.57939 3.76008 2.65098C3.85983 2.72256 3.93904 2.79414 3.99772 2.86573C4.11508 3.00889 4.2295 3.14848 4.34098 3.28449C4.45247 3.4205 4.56689 3.56009 4.68424 3.70325C4.74292 3.77484 4.80453 3.85 4.86907 3.92874C4.93362 4.00748 4.99523 4.08265 5.05391 4.15423L6.09249 5.42126C6.29199 5.66464 6.39174 5.90445 6.39174 6.14067C6.39174 6.3769 6.29199 6.6167 6.09249 6.86009C6.03381 6.93167 5.97807 6.99967 5.92526 7.0641C5.87245 7.12852 5.81671 7.19653 5.75803 7.26811C5.60547 7.46855 5.44998 7.66182 5.29155 7.84794C5.13312 8.03406 4.97176 8.21302 4.80746 8.38482C4.80746 8.39913 4.80453 8.40629 4.79866 8.40629C4.79279 8.40629 4.78986 8.40629 4.78986 8.40629C4.62557 8.60672 4.54342 8.8 4.54342 8.98612C4.54342 9.17223 4.56102 9.32972 4.59623 9.45857C4.59623 9.47289 4.59623 9.48362 4.59623 9.49078C4.59623 9.49794 4.60209 9.50152 4.61383 9.50152C4.74292 9.90239 4.90721 10.2997 5.10672 10.6934C5.30622 11.0871 5.54679 11.5059 5.82844 11.9497H5.84605C6.3624 12.7371 6.90223 13.4422 7.46553 14.065C8.02883 14.6877 8.6156 15.2354 9.22584 15.7078C9.29625 15.7651 9.37253 15.8188 9.45468 15.8689C9.53683 15.919 9.61311 15.9655 9.68352 16.0085C9.75393 16.0514 9.82141 16.0944 9.88595 16.1373C9.9505 16.1803 10.0121 16.2232 10.0708 16.2662C10.0708 16.2662 10.0767 16.2697 10.0884 16.2769C10.1001 16.2841 10.106 16.2876 10.106 16.2876C10.1764 16.3306 10.2409 16.3628 10.2996 16.3843C10.3583 16.4057 10.4228 16.4165 10.4933 16.4165C10.6458 16.4165 10.772 16.3735 10.8717 16.2876C10.9715 16.2017 11.0331 16.1373 11.0566 16.0944L12.3592 14.5052C12.4296 14.4193 12.5147 14.3406 12.6144 14.269C12.7142 14.1974 12.8227 14.1616 12.9401 14.1616C13.0574 14.1616 13.1631 14.1974 13.2569 14.269C13.3508 14.3406 13.4271 14.4121 13.4858 14.4837C13.4858 14.498 13.4858 14.5052 13.4858 14.5052C13.4858 14.5052 13.4917 14.5052 13.5034 14.5052L15.5982 17.0607C15.7859 17.3041 15.8798 17.5475 15.8798 17.7909C15.8798 18.0343 15.7859 18.2777 15.5982 18.521ZM9.71873 5.22798C10.2233 5.34252 10.6986 5.53937 11.1446 5.81855C11.5905 6.09772 11.9954 6.45922 12.3592 6.90304C12.7112 7.34685 13.0046 7.84078 13.2393 8.38482C13.474 8.92885 13.6325 9.50152 13.7146 10.1028C13.7381 10.2603 13.7968 10.3856 13.8907 10.4786C13.9845 10.5717 14.096 10.6182 14.2251 10.6182C14.2368 10.6182 14.2486 10.6182 14.2603 10.6182C14.2721 10.6182 14.2897 10.6182 14.3131 10.6182C14.454 10.5896 14.5654 10.5037 14.6476 10.3605C14.7297 10.2174 14.7591 10.0599 14.7356 9.88807C14.63 9.15792 14.4364 8.46356 14.1547 7.80499C13.8731 7.14642 13.5151 6.55228 13.0809 6.02256C12.6467 5.49284 12.1597 5.05618 11.6199 4.71258C11.08 4.36898 10.5109 4.13276 9.91236 4.0039C9.77153 3.97527 9.64244 4.01106 9.52509 4.11128C9.40774 4.2115 9.33732 4.34751 9.31385 4.51931C9.29038 4.67679 9.31679 4.82711 9.39307 4.97028C9.46935 5.11345 9.5779 5.19935 9.71873 5.22798ZM17.9922 9.71627C17.91 9.10065 17.7868 8.50651 17.6225 7.93384C17.4699 7.36117 17.2793 6.8064 17.0504 6.26952C16.8216 5.73265 16.5605 5.21367 16.2671 4.71258C15.962 4.22581 15.6334 3.76052 15.2813 3.3167C14.9175 2.8872 14.5361 2.49349 14.1371 2.13557C13.7264 1.76334 13.301 1.44122 12.8609 1.1692C12.4208 0.897181 11.9661 0.660954 11.4966 0.46052C11.0272 0.274403 10.5461 0.124079 10.0532 0.00954437C9.91236 -0.0190887 9.78327 0.0167027 9.66592 0.11692C9.54856 0.217136 9.47815 0.353146 9.45468 0.524946C9.43121 0.696747 9.46055 0.854229 9.54269 0.997396C9.62484 1.14056 9.73633 1.22646 9.87715 1.2551C10.769 1.44122 11.6111 1.78481 12.4032 2.2859C13.1953 2.78699 13.9141 3.43124 14.5596 4.21865C15.205 4.99176 15.7331 5.86508 16.1439 6.83861C16.5546 7.81215 16.8304 8.83579 16.9712 9.90954C16.9947 10.067 17.0563 10.1923 17.156 10.2854C17.2558 10.3784 17.3643 10.4249 17.4817 10.4249C17.5052 10.4249 17.5228 10.4249 17.5345 10.4249C17.5462 10.4249 17.558 10.4249 17.5697 10.4249C17.7105 10.3963 17.822 10.3104 17.9042 10.1672C17.9863 10.0241 18.0156 9.87375 17.9922 9.71627Z" fill="#00C3FF"/>
</svg>
