<svg width="19" height="19" viewBox="0 0 19 19" fill="none" xmlns="http://www.w3.org/2000/svg">
<path d="M18.651 6.63061L9.71327 0.0775509C9.63571 0.0258503 9.5517 0 9.46122 0C9.37075 0 9.2932 0.0258503 9.22857 0.0775509L0.193878 6.66939C0.129252 6.72109 0.0807823 6.77925 0.0484694 6.84388C0.0161565 6.9085 0 6.97313 0 7.03776V18.5929C0 18.7092 0.0420068 18.8061 0.12602 18.8837C0.210034 18.9612 0.303742 19 0.407143 19H18.5541C18.6704 19 18.7673 18.9645 18.8449 18.8934C18.9224 18.8223 18.9741 18.735 19 18.6316V7.17347C19 7.07007 18.9774 6.97636 18.9321 6.89235C18.8869 6.80833 18.7932 6.72109 18.651 6.63061ZM1.57041 18.1857L8.12347 13.1255L9.24796 13.9398C9.31258 14.0173 9.3869 14.0529 9.47092 14.0464C9.55493 14.04 9.64218 14.0044 9.73265 13.9398L10.8184 13.1449L17.3133 18.1857H1.57041ZM0.814286 7.73571L7.46429 12.6408L0.814286 17.798V7.73571ZM11.4582 12.6796L18.1857 7.73571V17.8949L11.4582 12.6796ZM9.48061 0.891836L17.798 7.01837L9.48061 13.1449L1.16327 6.99898L9.48061 0.891836Z" fill="#00C3FF"/>
</svg>
