<svg width="38" height="38" viewBox="0 0 38 38" fill="none" xmlns="http://www.w3.org/2000/svg">
<path d="M18.5 26C22.6356 26 26 22.6359 26 18.5C26 14.3641 22.6358 11 18.5 11C14.3642 11 11 14.3641 11 18.5C11 22.6359 14.3642 26 18.5 26ZM18.5 13.5002C21.2575 13.5002 23.4998 15.7426 23.4998 18.5001C23.4998 21.2576 21.2575 23.4999 18.5 23.4999C15.7425 23.4999 13.5002 21.2575 13.5002 18.5001C13.5002 15.7426 15.7425 13.5002 18.5 13.5002Z" fill="#43BAFF"/>
<path d="M19 0C8.52366 0 0 8.52366 0 19C0 29.4763 8.52366 38 19 38C29.4763 38 38 29.4763 38 19C38 8.52366 29.4763 0 19 0ZM19 2.37507C28.1677 2.37507 35.6253 9.83276 35.6253 19.0004C35.6253 22.8196 34.3176 26.3312 32.1445 29.1417C23.8091 25.1969 14.1905 25.1969 5.85576 29.1417C3.68265 26.3316 2.37493 22.8198 2.37493 19.0004C2.37493 9.83276 9.83262 2.37507 19.0003 2.37507H19ZM7.52181 30.9978C14.8492 27.7524 23.1515 27.7524 30.4789 30.9978C27.4917 33.8569 23.4521 35.6254 19.0007 35.6254C14.5492 35.6254 10.5094 33.8568 7.5225 30.9978H7.52181Z" fill="#43BAFF"/>
</svg>
