<svg width="90" height="90" viewBox="0 0 90 90" fill="none" xmlns="http://www.w3.org/2000/svg">
<path d="M0.75 45C0.75 20.5614 20.5614 0.75 45 0.75C69.4386 0.75 89.25 20.5614 89.25 45C89.25 69.4386 69.4386 89.25 45 89.25C20.5614 89.25 0.75 69.4386 0.75 45Z" fill="#01273C"/>
<path d="M0.75 45C0.75 20.5614 20.5614 0.75 45 0.75C69.4386 0.75 89.25 20.5614 89.25 45C89.25 69.4386 69.4386 89.25 45 89.25C20.5614 89.25 0.75 69.4386 0.75 45Z" stroke="white" stroke-width="1.5"/>
<g clip-path="url(#clip0_1_417)">
<path d="M30.1211 41.293C31.6784 41.293 32.9987 40.7513 34.082 39.668C35.1654 38.5846 35.707 37.2643 35.707 35.707C35.707 34.1836 35.1654 32.8717 34.082 31.7715C32.9987 30.6712 31.6784 30.1211 30.1211 30.1211C28.5977 30.1211 27.2943 30.6712 26.2109 31.7715C25.1276 32.8717 24.5859 34.1836 24.5859 35.707C24.5859 37.2643 25.1276 38.5846 26.2109 39.668C27.2943 40.7513 28.5977 41.293 30.1211 41.293ZM30.1211 32C31.1706 32 32.0592 32.3639 32.7871 33.0918C33.515 33.8197 33.8789 34.6914 33.8789 35.707C33.8789 36.7227 33.515 37.5944 32.7871 38.3223C32.0592 39.0501 31.1706 39.4141 30.1211 39.4141C29.1055 39.4141 28.2337 39.0501 27.5059 38.3223C26.778 37.5944 26.4141 36.7227 26.4141 35.707C26.4141 34.6914 26.778 33.8197 27.5059 33.0918C28.2337 32.3639 29.1055 32 30.1211 32ZM59.8789 41.293C61.4023 41.293 62.7057 40.7513 63.7891 39.668C64.8724 38.5846 65.4141 37.2643 65.4141 35.707C65.4141 34.1836 64.8724 32.8717 63.7891 31.7715C62.7057 30.6712 61.4023 30.1211 59.8789 30.1211C58.3216 30.1211 57.0013 30.6712 55.918 31.7715C54.8346 32.8717 54.293 34.1836 54.293 35.707C54.293 37.2643 54.8346 38.5846 55.918 39.668C57.0013 40.7513 58.3216 41.293 59.8789 41.293ZM59.8789 32C60.8945 32 61.7663 32.3639 62.4941 33.0918C63.222 33.8197 63.5859 34.6914 63.5859 35.707C63.5859 36.7227 63.222 37.5944 62.4941 38.3223C61.7663 39.0501 60.8945 39.4141 59.8789 39.4141C58.8294 39.4141 57.9408 39.0501 57.2129 38.3223C56.485 37.5944 56.1211 36.7227 56.1211 35.707C56.1211 34.6914 56.485 33.8197 57.2129 33.0918C57.9408 32.3639 58.8294 32 59.8789 32ZM69.1211 43.1211V55.207C69.1211 55.9857 68.8503 56.6458 68.3086 57.1875C67.7669 57.7292 67.1237 58 66.3789 58V47.793C66.3789 46.5065 65.9219 45.4062 65.0078 44.4922C64.0938 43.5781 62.9935 43.1211 61.707 43.1211H57.0859C56.8151 43.1211 56.5866 43.2142 56.4004 43.4004C56.2142 43.5866 56.1211 43.8151 56.1211 44.0859V49.6211H48.707C48.4701 49.6211 48.2585 49.7142 48.0723 49.9004C47.8861 50.0866 47.793 50.3151 47.793 50.5859V53.3789H42.207V50.5859C42.207 50.3151 42.1139 50.0866 41.9277 49.9004C41.7415 49.7142 41.5299 49.6211 41.293 49.6211H33.8789V44.0859C33.8789 43.8151 33.7858 43.5866 33.5996 43.4004C33.4134 43.2142 33.1849 43.1211 32.9141 43.1211H28.293C27.0065 43.1211 25.9062 43.5781 24.9922 44.4922C24.0781 45.4062 23.6211 46.5065 23.6211 47.793V58C22.8763 58 22.2331 57.7292 21.6914 57.1875C21.1497 56.6458 20.8789 55.9857 20.8789 55.207V43.1211H19V55.207C19 56.1549 19.2624 57.0098 19.7871 57.7715C20.3118 58.5332 20.9805 59.1003 21.793 59.4727V71H23.6211V59.8789H32.9141V70.0859C32.9141 70.3229 33.0072 70.5345 33.1934 70.7207C33.3796 70.9069 33.6081 71 33.8789 71H38.5V55.207H51.5V71H56.1211C56.3919 71 56.6204 70.9069 56.8066 70.7207C56.9928 70.5345 57.0859 70.3229 57.0859 70.0859V59.8789H66.3789V71H68.207V59.4727C69.0195 59.1003 69.6882 58.5332 70.2129 57.7715C70.7376 57.0098 71 56.1549 71 55.207V43.1211H69.1211ZM37.5859 53.3789H30.1211V47.793H28.293V54.293C28.293 54.5299 28.3861 54.7415 28.5723 54.9277C28.7585 55.1139 28.9701 55.207 29.207 55.207H35.707C35.9779 55.207 36.1979 55.3001 36.3672 55.4863C36.5365 55.6725 36.6211 55.8841 36.6211 56.1211V69.1211H34.793V58.9141C34.793 58.6771 34.6999 58.4655 34.5137 58.2793C34.3275 58.0931 34.1159 58 33.8789 58H25.5V47.793C25.5 47.0143 25.7708 46.3542 26.3125 45.8125C26.8542 45.2708 27.5143 45 28.293 45H32V50.5859C32 50.8229 32.0931 51.0345 32.2793 51.2207C32.4655 51.4069 32.6771 51.5 32.9141 51.5H40.3789V53.3789H37.5859ZM56.1211 58C55.8841 58 55.6725 58.0931 55.4863 58.2793C55.3001 58.4655 55.207 58.6771 55.207 58.9141V69.1211H53.3789V56.1211C53.3789 55.8841 53.4635 55.6725 53.6328 55.4863C53.8021 55.3001 54.0221 55.207 54.293 55.207H60.793C61.0299 55.207 61.2415 55.1139 61.4277 54.9277C61.6139 54.7415 61.707 54.5299 61.707 54.293V47.793H59.8789V53.3789H49.6211V51.5H57.0859C57.3229 51.5 57.5345 51.4069 57.7207 51.2207C57.9069 51.0345 58 50.8229 58 50.5859V45H61.707C62.4857 45 63.1458 45.2708 63.6875 45.8125C64.2292 46.3542 64.5 47.0143 64.5 47.793V58H56.1211ZM36.6211 28.293V31.0859C36.6211 31.2891 36.6803 31.4668 36.7988 31.6191C36.9173 31.7715 37.0781 31.8815 37.2812 31.9492C37.3151 31.9831 37.3574 32 37.4082 32C37.459 32 37.5182 32 37.5859 32C37.7214 32 37.8568 31.9661 37.9922 31.8984C38.1276 31.8307 38.2292 31.7461 38.2969 31.6445L40.8359 28.293H47.793C48.5716 28.293 49.2318 28.0221 49.7734 27.4805C50.3151 26.9388 50.5859 26.2786 50.5859 25.5V21.793C50.5859 21.0143 50.3151 20.3542 49.7734 19.8125C49.2318 19.2708 48.5716 19 47.793 19H36.6211C35.8763 19 35.2331 19.2708 34.6914 19.8125C34.1497 20.3542 33.8789 21.0143 33.8789 21.793V25.5C33.8789 26.2786 34.1497 26.9388 34.6914 27.4805C35.2331 28.0221 35.8763 28.293 36.6211 28.293ZM35.707 21.793C35.707 21.5221 35.8001 21.3021 35.9863 21.1328C36.1725 20.9635 36.3841 20.8789 36.6211 20.8789H47.793C48.0299 20.8789 48.2415 20.9635 48.4277 21.1328C48.6139 21.3021 48.707 21.5221 48.707 21.793V25.5C48.707 25.7708 48.6139 25.9909 48.4277 26.1602C48.2415 26.3294 48.0299 26.4141 47.793 26.4141H40.3789C40.2096 26.4141 40.0658 26.4479 39.9473 26.5156C39.8288 26.5833 39.7188 26.6849 39.6172 26.8203L38.5 28.293V27.3789C38.5 27.1081 38.4069 26.8796 38.2207 26.6934C38.0345 26.5072 37.8229 26.4141 37.5859 26.4141H36.6211C36.3841 26.4141 36.1725 26.3294 35.9863 26.1602C35.8001 25.9909 35.707 25.7708 35.707 25.5V21.793ZM37.5859 22.707H46.8789V24.5859H37.5859V22.707ZM44.0859 42.207H49.6211V44.0859H44.0859V42.207ZM43.1211 38.5C42.3763 38.5 41.7331 38.7708 41.1914 39.3125C40.6497 39.8542 40.3789 40.5143 40.3789 41.293V45C40.3789 45.7786 40.6497 46.4388 41.1914 46.9805C41.7331 47.5221 42.3763 47.793 43.1211 47.793H50.5859C51.3307 47.793 51.9824 47.5221 52.541 46.9805C53.0996 46.4388 53.3789 45.7786 53.3789 45V44.3398L55.0547 41.8008C55.1562 41.6654 55.207 41.513 55.207 41.3438C55.207 41.1745 55.1732 41.0052 55.1055 40.8359C55.0378 40.7005 54.9277 40.5905 54.7754 40.5059C54.623 40.4212 54.4622 40.3789 54.293 40.3789H53.1758C53.0065 39.8372 52.6849 39.3887 52.2109 39.0332C51.737 38.6777 51.1953 38.5 50.5859 38.5H43.1211ZM51.5 41.293C51.5 41.5299 51.5931 41.7415 51.7793 41.9277C51.9655 42.1139 52.1771 42.207 52.4141 42.207H52.5664L51.6523 43.5781C51.6185 43.6458 51.5846 43.722 51.5508 43.8066C51.5169 43.8913 51.5 43.9844 51.5 44.0859V45C51.5 45.2708 51.4069 45.4909 51.2207 45.6602C51.0345 45.8294 50.8229 45.9141 50.5859 45.9141H43.1211C42.8841 45.9141 42.6725 45.8294 42.4863 45.6602C42.3001 45.4909 42.207 45.2708 42.207 45V41.293C42.207 41.0221 42.3001 40.8021 42.4863 40.6328C42.6725 40.4635 42.8841 40.3789 43.1211 40.3789H50.5859C50.8229 40.3789 51.0345 40.4635 51.2207 40.6328C51.4069 40.8021 51.5 41.0221 51.5 41.293ZM40.3789 33.8789H42.207V35.707H40.3789V33.8789ZM44.0859 33.8789H45.9141V35.707H44.0859V33.8789ZM47.793 33.8789H49.6211V35.707H47.793V33.8789Z" fill="#43BAFF"/>
</g>
<defs>
<clipPath id="clip0_1_417">
<rect width="52" height="52" fill="white" transform="matrix(1 0 0 -1 19 71)"/>
</clipPath>
</defs>
</svg>
